<?xml version="1.0" encoding="UTF-8" standalone="no"?>
<!-- Created with Inkscape (http://www.inkscape.org/) -->

<svg
   width="16"
   height="16"
   viewBox="0 0 16 16"
   version="1.1"
   id="svg1"
   xmlns="http://www.w3.org/2000/svg"
   xmlns:svg="http://www.w3.org/2000/svg">
  <defs
     id="defs1" />
  <g
     id="layer1">
    <rect
       style="fill:#ffffff;stroke-width:10;stroke-linecap:round;stroke-linejoin:round"
       id="rect1"
       width="16"
       height="16"
       x="0"
       y="0"
       ry="3.5" />
    <g
       id="text1"
       style="font-size:13.3333px;font-family:Poppins;-inkscape-font-specification:Poppins;text-align:center;text-anchor:middle;stroke-width:10;stroke-linecap:round;stroke-linejoin:round"
       aria-label="SC"
       transform="translate(-0.2466801,0.21079935)">
      <path
         d="m 4.5501548,12.789201 q -0.967742,0 -1.7391305,-0.336606 -0.7573634,-0.350631 -1.192146,-0.953717 -0.4347828,-0.617111 -0.448808,-1.416549 h 1.360449 q 0.070125,0.687236 0.5610099,1.164094 0.5049088,0.462834 1.4586256,0.462834 0.911641,0 1.4305751,-0.448808 0.5329595,-0.462833 0.5329595,-1.17812 0,-0.56101 -0.3085556,-0.9116412 Q 5.8965785,8.8200568 5.4337453,8.6377285 4.9709122,8.4554003 4.1854985,8.2450215 3.2177564,7.9925672 2.628696,7.7401127 2.0536609,7.4876582 1.6329034,6.9546988 1.2261714,6.4077143 1.2261714,5.4960732 q 0,-0.799439 0.406732,-1.4165498 0.4067322,-0.617111 1.1360451,-0.9537169 0.7433381,-0.3366059 1.6970549,-0.3366059 1.374474,0 2.2440394,0.6872371 0.8835905,0.6872371 0.9957925,1.823282 H 6.3033106 Q 6.2331844,4.73871 5.7142502,4.3179525 5.1953161,3.8831698 4.3397761,3.8831698 q -0.7994389,0 -1.3043479,0.4207575 -0.5049089,0.4067321 -0.5049089,1.1500701 0,0.5329594 0.2945302,0.8695654 0.3085554,0.3366059 0.743338,0.518934 0.448808,0.1683031 1.248247,0.3927071 0.967742,0.2664796 1.5568024,0.5329592 0.5890603,0.2524545 1.0098178,0.7994392 0.4207573,0.5329592 0.4207573,1.4586247 0,0.715288 -0.3786817,1.346424 -0.3786817,0.631137 -1.1220197,1.023843 -0.7433381,0.392707 -1.7531558,0.392707 z"
         id="path5"
         style="stroke-width:10.519" />
      <path
         style="font-weight:bold;font-family:'Fugaz One';-inkscape-font-specification:'Fugaz One Bold';stroke-width:10.1995"
         d="m 10.174139,12.866284 q -1.944699,0 -2.6926607,-0.843156 -0.5167736,-0.598369 -0.5167736,-1.672715 0,-0.4623759 0.095195,-0.9927486 l 0.5575713,-3.12784 q 0.6119687,-3.4406237 4.419773,-3.4406237 1.57752,0 2.393478,0.6799652 0.815958,0.6663658 0.815958,1.835906 0,0.5439721 -0.163192,1.0879442 -0.149593,0.5303729 -0.299184,0.7887597 l -0.149593,0.2719861 h -2.407077 q 0.448777,-0.5167736 0.448777,-1.4687248 0,-0.5031744 -0.258386,-0.7887596 -0.258387,-0.2991846 -0.761561,-0.2991846 -1.373529,0 -1.631917,1.5231218 L 9.5485717,9.167274 q -0.068,0.3535819 -0.068,0.6935645 0,0.8975535 1.0743443,0.8975535 1.291934,0 1.550321,-1.4551249 h 2.447874 l -0.068,0.3943798 q -0.543972,3.1686371 -4.310979,3.1686371 z"
         id="path6" />
    </g>
  </g>
</svg>
